<?xml version="1.0" encoding="utf-8"?>
<!-- Generator: Adobe Illustrator 16.0.0, SVG Export Plug-In . SVG Version: 6.00 Build 0)  -->
<!DOCTYPE svg PUBLIC "-//W3C//DTD SVG 1.1//EN" "http://www.w3.org/Graphics/SVG/1.1/DTD/svg11.dtd">
<svg version="1.1" id="Layer_1" xmlns="http://www.w3.org/2000/svg" xmlns:xlink="http://www.w3.org/1999/xlink" x="0px" y="0px"
	 width="822.32px" height="297.723px" viewBox="0 0 822.32 297.723" enable-background="new 0 0 822.32 297.723"
	 xml:space="preserve">
<g id="Layer_4" display="none">

		<image display="inline" overflow="visible" opacity="0.75" enable-background="new    " width="1734" height="1253" xlink:href="AB586A514BF99A21.jpeg"  transform="matrix(0.48 0 0 0.48 960.6226 733.3533)">
	</image>
</g>
<g id="Layer_3" display="none">
	<polygon display="inline" fill="none" stroke="#004129" stroke-miterlimit="10" points="1588.5,1171.971 1576.5,1190.221
		1563.25,1186.867 1548.5,1193.221 1526.253,1193.221 1513.625,1187.215 1503.75,1190.294 1486.5,1159.883 1497.5,1137.221
		1577.5,1137.221 	"/>
	<polygon display="inline" fill="none" stroke="#004129" stroke-miterlimit="10" points="1588.5,1171.971 1576.5,1190.221
		1563.25,1186.721 1547.812,1193.221 1525.988,1192.945 1513.625,1187.071 1503.75,1190.221 1486.5,1159.846 1497.5,1137.221
		1577.5,1137.221 	"/>
	<polygon display="inline" fill="none" stroke="#004129" stroke-miterlimit="10" points="1486.5,1159.846 1503.75,1190.221
		1476.75,1219.721 1470.462,1195.221 	"/>
	<path display="inline" fill="none" stroke="#004129" stroke-miterlimit="10" d="M1507.097,1244.276
		c-7.666-3.335-29.584-20.903-30.348-25.805c-0.021-0.138,27-27.625,27-27.625l9.875-2.909l12.629,4.284L1507.097,1244.276z"/>
	<polygon display="inline" fill="none" stroke="#004129" stroke-miterlimit="10" points="1552.5,1197.221 1576.5,1197.221
		1574.75,1193.221 1552.5,1193.221 	"/>
	<polygon display="inline" fill="none" stroke="#004129" stroke-miterlimit="10" points="1552.5,1197.221 1574,1197.221
		1572.414,1201.221 1552.5,1201.221 	"/>
	<polygon display="inline" fill="none" stroke="#004129" stroke-miterlimit="10" points="1567,1244.221 1559.998,1258.221
		1546.75,1258.221 1540,1247.221 1534,1247.221 1529,1259.221 1513.625,1259.221 1507.25,1244.221 1525.5,1193.221 1547.5,1193.221
			"/>
	<polygon display="inline" fill="none" stroke="#004129" stroke-miterlimit="10" points="1556,1258.221 1546.75,1258.221
		1540,1247.221 1534,1247.221 1529,1259.221 1518,1259.221 1525.5,1272.221 1551,1272.221 	"/>
	<polygon display="inline" fill="none" stroke="#004129" stroke-miterlimit="10" points="1543.5,1247.221 1530.5,1247.221
		1525.5,1236.221 1548.5,1236.221 	"/>
	<polygon display="inline" fill="none" stroke="#004129" stroke-miterlimit="10" points="1537,1224.221 1525.5,1236.221
		1548.5,1236.221 	"/>
	<polygon display="inline" fill="none" stroke="#004129" stroke-miterlimit="10" points="1499.216,1144.218 1478.003,1123.004
		1487.75,1122.221 1506.996,1136.439 	"/>
	<polygon display="inline" fill="none" stroke="#004129" stroke-miterlimit="10" points="1484.5,1162.971 1474.75,1137.221
		1477.781,1123.225 1498.996,1144.439 	"/>
	<polyline display="inline" fill="none" stroke="#004129" stroke-miterlimit="10" points="1474.75,1137.221 1477.781,1123.225
		1498.996,1144.439 	"/>
	<polygon display="inline" fill="none" stroke="#004129" stroke-miterlimit="10" points="1585.527,1144.218 1606.742,1123.004
		1597.873,1122.221 1577.75,1136.439 	"/>
	<polygon display="inline" fill="none" stroke="#004129" stroke-miterlimit="10" points="1600.246,1162.971 1609.996,1137.221
		1606.962,1123.225 1585.75,1144.439 	"/>
	<polyline display="inline" fill="none" stroke="#004129" stroke-miterlimit="10" points="1609.996,1137.221 1606.962,1123.225
		1585.75,1144.439 	"/>
	<path display="inline" fill="none" stroke="#004129" stroke-miterlimit="10" d="M1564.5,1250.721l-17-57.5l30-56l39.75,60
		c0,0-7.943,12.189-11.418,16.416c-4.393,5.345-16.475,17.877-21.543,22.584C1579.496,1240.671,1564.5,1250.721,1564.5,1250.721z"/>
	<polygon display="inline" fill="none" stroke="#004129" stroke-miterlimit="10" points="1525.5,1197.221 1501.75,1197.221
		1503.5,1193.221 1525.5,1193.221 	"/>
	<polygon display="inline" fill="none" stroke="#004129" stroke-miterlimit="10" points="1525.5,1197.221 1504.25,1197.221
		1505.835,1201.221 1525.5,1201.221 	"/>
	<polygon display="inline" fill="none" stroke="#004129" stroke-miterlimit="10" points="1503.875,1134.083 1547.562,1115.296
		1576.531,1117.808 1617.265,1115.203 1650.464,1108.749 1676.214,1105.521 1687.8,1116.463 1713.552,1153.159 1722.564,1189.786
		1727.716,1224.221 1698.099,1335.362 1664.621,1330.211 1624.703,1335.362 1606.742,1352.1 1585.75,1374.635 1597.998,1333.429
		1617.5,1209.814 1617.5,1197.721 	"/>
	<polygon display="inline" fill="none" stroke="#004129" stroke-miterlimit="10" points="1698.142,1335.667 1694.902,1359.335
		1677.5,1369.485 1677.5,1379.721 1622.623,1448.676 1615.5,1453.827 1615.5,1465.721 1606.742,1468.406 1537.5,1472.221
		1514,1472.221 1525.5,1460.264 1559.031,1440.305 1585.75,1374.635 1624.703,1335.362 1664.621,1330.211 	"/>
	<polygon display="inline" fill="none" stroke="#004129" stroke-miterlimit="10" points="1553.564,1265.041 1582.375,1283.211
		1598.505,1330.211 1617.5,1197.721 1584.289,1236.221 1564.5,1250.721 1556,1258.221 	"/>
	<polygon display="inline" fill="none" stroke="#004129" stroke-miterlimit="10" points="1691.65,1361.314 1708.47,1414.552
		1691.544,1449.32 1685.238,1457.045 1654.96,1472.221 1634,1472.221 1648.521,1457.689 1657.537,1433.868 1649.728,1414.619
		1664.619,1374.635 	"/>
	<polygon display="inline" fill="none" stroke="#004129" stroke-miterlimit="10" points="1676.271,1105.276 1714.195,1123.221
		1763,1123.221 1840.386,1114.37 1899.619,1110.021 1944.687,1144.218 2000.701,1219.721 2021.304,1279.347 2030.96,1361.314
		2035.468,1393.951 2043.193,1410.046 2005.208,1421.635 1991.042,1459.622 1979.455,1467.991 1960.783,1472.221 1956.919,1458.976
		1969.796,1449.32 1976.878,1422.922 1968.509,1410.046 1948.55,1379.786 1979.455,1288.628 1983.316,1278.221 1990,1278.221
		2002.632,1265.041 1989.755,1240.079 1868.072,1170.541 1856.482,1133.833 1758.621,1157.019 1704.007,1139.557 	"/>
	<polygon display="inline" fill="none" stroke="#004129" stroke-miterlimit="10" points="1699.472,1330.211 1775.359,1354.676
		1824.935,1361.314 1837.167,1364.334 1813.99,1283.211 1859.73,1189.785 1873.41,1173.591 1862.921,1133.219 1702.369,1137.221
		"/>
	<path display="inline" fill="none" stroke="#004129" stroke-miterlimit="10" d="M1990,1278.221l12.633-13.182l-12.877-24.962
		l-81.994-46.856l7.953,18.524l42.494,32.53l3.861,9.318l9.658-6.373l-6.438,12l1.932,9.182l16.096,9.818l-28.121,91.982
		l-7.949,15.975l-35.396,65.155l-8.145,14.408l-4.072,6.479l-4.07,2.292l-68.602,3.76l-16.289-2.819l8.771-9.396l4.385-0.939
		c0,0,4.699,0.312,6.578,0.312c1.881,0,10.338-2.818,10.338-2.818l17.229-15.662l-0.625-20.987l-20.18-61.627"/>
	<polygon display="inline" fill="none" stroke="#004129" stroke-miterlimit="10" points="2043.193,1410.046 2040.906,1426.275
		2032.447,1436.925 2016.472,1451.96 2012.398,1463.864 2004.568,1470.128 1960.783,1472.221 1992.666,1441.134 2002.632,1415.625
		"/>
</g>
<g id="Layer_5" display="none">
	<polygon display="inline" fill="none" points="1588.5,1172.221 1576.5,1190.346 1563.25,1187.178 1548.5,1193.721
		1526.253,1193.721 1513.625,1187.465 1503.75,1190.419 1486.5,1160.196 1497.5,1137.721 1577.5,1137.721 	"/>
	<path display="inline" fill="#956543" d="M1507.097,1244.276c-7.666-3.335-29.584-20.903-30.348-25.805
		c-0.021-0.138,27-27.625,27-27.625l9.875-2.909l12.629,4.284L1507.097,1244.276z"/>
	<polygon display="inline" fill="#73502A" points="1556,1258.721 1546.75,1258.721 1540,1247.721 1534,1247.721 1529,1259.721
		1518,1259.721 1525.5,1272.721 1551,1272.721 	"/>
	<polygon display="inline" fill="#714E29" points="1499.216,1144.218 1478.003,1123.004 1487.75,1122.221 1506.996,1136.439 	"/>
	<polygon display="inline" fill="#7C6E61" points="1484.5,1162.971 1474.75,1137.221 1477.781,1123.225 1498.996,1144.439 	"/>
	<polygon display="inline" fill="#53555C" points="1553.564,1265.041 1582.375,1283.211 1598.505,1330.211 1617.5,1222.123
		1617,1197.721 1584.289,1236.221 1564.5,1250.721 1556,1258.221 	"/>
	<polygon display="inline" fill="#53555C" points="1691.65,1361.314 1708.47,1414.552 1691.544,1449.32 1685.238,1457.295
		1654.96,1472.721 1634,1472.721 1648.521,1457.939 1657.537,1433.993 1649.728,1414.68 1664.619,1374.667 	"/>
	<polygon display="inline" fill="#714E29" points="1699.472,1330.211 1775.359,1354.676 1824.935,1361.314 1837.167,1364.334
		1813.99,1283.211 1859.73,1189.785 1873.41,1173.591 1862.921,1133.219 1702.369,1137.221 	"/>
	<polygon display="inline" fill="#7C6E61" points="2043.193,1410.046 2040.906,1426.275 2032.447,1436.925 2016.472,1451.96
		2012.398,1463.864 2004.568,1470.128 1960.783,1472.221 1992.666,1441.134 2002.632,1415.625 	"/>
	<polygon display="inline" fill="#53555C" points="1524,1197.721 1503.25,1197.721 1504.835,1201.721 1524,1201.721 	"/>
	<polygon display="inline" fill="#D2B686" points="1567,1244.721 1559.998,1258.721 1546.75,1258.721 1540,1247.721 1534,1247.721
		1529,1259.721 1513.625,1259.721 1507.25,1244.721 1525.5,1193.721 1547.5,1193.721 	"/>
	<polygon display="inline" fill="#53555C" points="1543.5,1247.721 1530.5,1247.721 1525.5,1236.721 1548.5,1236.721 	"/>
	<polygon display="inline" fill="#7C6E61" points="1537,1224.721 1525.5,1236.721 1548.5,1236.721 	"/>
	<polygon display="inline" fill="#A17D40" points="1503.625,1134.083 1547.437,1115.296 1576.468,1117.808 1617.234,1115.203
		1650.449,1108.749 1676.207,1105.521 1687.796,1116.463 1713.55,1153.159 1722.564,1189.786 1727.716,1224.221 1698.099,1335.362
		1664.621,1330.211 1624.703,1335.362 1606.742,1352.1 1585.75,1374.635 1597.748,1333.429 1617,1209.814 1617,1197.721 	"/>
	<polygon display="inline" fill="#956543" points="1695.82,1333.725 1694.652,1359.335 1677,1369.485 1677,1379.721
		1622.123,1448.676 1615,1453.827 1615,1465.721 1606.492,1468.656 1537.5,1472.721 1514,1472.721 1525.5,1460.514
		1559.031,1440.43 1585.75,1374.698 1620.355,1334.163 1664.621,1330.226 	"/>
	<polygon display="inline" fill="#A17D40" points="1503.625,1134.083 1547.437,1115.296 1576.468,1117.808 1617.234,1115.203
		1650.449,1108.749 1676.207,1105.521 1687.796,1116.463 1713.55,1153.159 1722.564,1189.786 1727.716,1224.221 1697.14,1336.3
		1664.621,1330.211 1624.703,1335.362 1606.742,1352.1 1585.75,1374.635 1597.748,1333.429 1617,1209.814 1617,1197.721 	"/>
	<polygon display="inline" fill="#714E29" points="1585.527,1144.218 1606.742,1123.004 1597.873,1122.221 1577.75,1136.439 	"/>
	<polygon display="inline" fill="#B3A599" points="1600.246,1162.971 1609.996,1137.221 1606.962,1123.225 1585.75,1144.439 	"/>
	<path display="inline" fill="#956543" d="M1564.5,1250.721l-17-57.5l30-56l39.75,60c0,0-7.943,12.189-11.418,16.416
		c-4.393,5.345-16.475,17.877-21.543,22.584C1579.496,1240.671,1564.5,1250.721,1564.5,1250.721z"/>
	<polygon display="inline" fill="#53555C" points="1552,1197.721 1574,1197.721 1572.414,1201.721 1552,1201.721 	"/>
	<polygon display="inline" fill="#AD9168" points="1552,1197.721 1576.5,1197.721 1574.75,1193.721 1552,1193.721 	"/>
	<polygon display="inline" fill="#AD9168" points="1588.5,1172.721 1576.5,1190.596 1558.785,1189.16 1547.5,1193.721
		1525.5,1193.721 1517.712,1189.16 1503.75,1190.846 1486.5,1160.603 1496.158,1141.386 1508.388,1136.757 1577.058,1136.978 	"/>
	<polygon display="inline" fill="#AD9168" points="1524,1197.721 1500.75,1197.721 1502.5,1193.721 1525.5,1193.721 	"/>
	<polygon display="inline" fill="#714E29" points="1486.5,1159.846 1503.75,1190.846 1476.75,1218.471 1470.462,1195.221 	"/>
	<path display="inline" fill="#956543" d="M1837.167,1364.336l20.178,61.629l0.627,20.99l-17.229,15.669
		c0,0-8.457,2.834-10.338,2.834s-6.578-0.285-6.578-0.285l-4.387,0.995l-8.77,9.51l16.289,3.044l42.383,3.195l26.217-7.179
		l4.072-2.518l4.072-6.479l8.145-14.408l35.396-65.155l7.949-15.975l28.121-91.982l-14.977-47.5l-60.58-37.5l-34.352-19.631
		l-13.68,11.688l-49.059,95.974L1837.167,1364.336z"/>
	<polyline display="inline" fill="#AD9168" points="1905.5,1112.221 1894.945,1110.499 1840.386,1114.62 1763,1123.721
		1714.195,1123.721 1676.271,1105.526 1704.007,1139.689 1758.621,1157.036 1844.261,1136.757 1873.41,1173.591 1907.773,1193.312
		1915.714,1211.777 1958.208,1244.292 1971.728,1247.225 1965.291,1259.223 1967.222,1268.654 1983.316,1278.721 1990,1278.721
		2002.632,1265.291 1989.755,1240.204 2000.701,1219.753 1944.687,1144.28 	"/>
	<polygon display="inline" fill="#714E29" points="2035.468,1393.955 2030.96,1361.323 2021.304,1279.364 2013,1240.079
		2000.701,1219.753 1995.873,1218.721 1989.755,1240.204 2002.632,1265.291 1990,1278.721 1983.316,1278.721 1979.455,1288.878
		1948.55,1379.786 1968.509,1410.046 1976.878,1422.922 1969.796,1449.32 1956.919,1458.976 1960.783,1472.221 1979.455,1467.991
		1991.042,1459.623 2005.208,1421.635 2043.193,1410.048 	"/>
</g>
<g id="Layer_6" display="none">
	<polygon display="inline" fill="none" points="1579.5,1172.221 1567.5,1190.346 1554.25,1187.178 1539.5,1193.721
		1517.253,1193.721 1504.625,1187.465 1494.75,1190.419 1477.5,1160.196 1488.5,1137.721 1568.5,1137.721 	"/>
	<path display="inline" fill="#956543" d="M1498.25,1244.929c-7.666-3.335-29.736-21.558-30.5-26.458
		c-0.021-0.138,27-27.625,27-27.625l13.113-3.318l9.391,4.693l-7.725,32.943L1498.25,1244.929z"/>
	<polygon display="inline" fill="#714E29" points="1547,1258.721 1537.75,1258.721 1531,1247.721 1525,1247.721 1520,1259.721
		1509,1259.721 1516.5,1272.721 1542,1272.721 	"/>
	<polygon display="inline" fill="#53555C" points="1544.564,1265.041 1573.375,1283.211 1589.505,1330.211 1608.5,1222.123
		1608,1197.721 1575.289,1236.221 1555.5,1250.721 1547,1258.221 	"/>
	<polygon display="inline" fill="#53555C" points="1682.65,1361.314 1699.47,1414.552 1682.544,1449.32 1676.238,1457.295
		1645.96,1472.721 1625,1472.721 1639.521,1457.939 1648.537,1433.993 1640.728,1414.68 1655.619,1374.667 	"/>
	<polygon display="inline" fill="#714E29" points="1690.472,1330.211 1766.359,1354.676 1815.935,1361.314 1828.167,1364.334
		1804.99,1283.211 1850.73,1189.785 1864.41,1173.591 1853.921,1133.219 1693.369,1137.221 	"/>
	<polygon display="inline" fill="#53555C" points="1513,1197.721 1494.25,1197.721 1498.25,1201.721 1505.22,1202.459
		1511,1201.721 	"/>
	<polygon display="inline" fill="#956543" points="1495.31,1133.788 1538.437,1115.296 1567.468,1117.808 1608.234,1115.203
		1641.449,1108.749 1667.207,1105.521 1678.796,1116.463 1704.55,1153.159 1713.564,1189.786 1718.716,1224.221 1688.14,1336.3
		1655.621,1330.211 1615.703,1335.362 1597.742,1352.1 1576.75,1374.635 1588.748,1333.429 1608,1209.814 1608,1197.721
		1497.73,1159.846 	"/>
	<path display="inline" fill="#956543" d="M1555.5,1250.721l-19.201-56.999l32.201-57.501l7.729,5.267l17.896,24.233l14.125,31.5
		c0,0-7.943,12.189-11.418,16.416c-4.393,5.345-16.475,17.877-21.543,22.584C1570.496,1240.671,1555.5,1250.721,1555.5,1250.721z"/>
	<polygon display="inline" fill="#53555C" points="1543,1197.721 1565,1197.721 1560.679,1201.721 1551.365,1202.592
		1546.328,1201.721 	"/>
	<polygon display="inline" fill="#A58965" points="1541.388,1197.721 1567.5,1197.721 1565.75,1193.721 1551.976,1192.125
		1544.564,1193.721 	"/>
	<polygon display="inline" fill="#A58965" points="1515,1197.721 1491.75,1197.721 1493.5,1193.721 1509,1192.125 1513,1193.721
		"/>
	<polygon display="inline" fill="#714E29" points="1477.5,1157.055 1494.75,1190.846 1467.75,1218.471 1461.462,1195.221 	"/>
	<polygon display="inline" fill="#714E29" points="2026.468,1393.955 2021.96,1361.323 2012.304,1279.364 2004,1240.079
		1991.701,1219.753 1986.873,1218.721 1980.755,1240.204 1993.632,1265.291 1981,1278.721 1974.316,1278.721 1970.455,1288.878
		1939.55,1379.786 1959.509,1410.046 1967.878,1422.922 1960.796,1449.32 1947.919,1458.976 1951.783,1472.221 1970.455,1467.991
		1982.042,1459.623 1996.208,1421.635 2034.193,1410.048 	"/>
	<polygon display="inline" fill="#714E29" points="1490.216,1144.218 1469.003,1123.004 1478.75,1122.221 1501.019,1137.775 	"/>
	<polygon display="inline" fill="#7C6E61" points="1478.439,1162.971 1465.75,1137.221 1469.003,1123.004 1491.13,1143.978 	"/>
	<polygon display="inline" fill="#714E29" points="1576.527,1144.218 1597.742,1123.004 1588.873,1122.221 1568.5,1136.221 	"/>
	<polygon display="inline" fill="#A58965" points="1591.246,1162.971 1600.996,1137.221 1597.742,1123.004 1576.527,1144.218 	"/>
	<polygon display="inline" fill="#53555C" points="1534.5,1247.721 1521.5,1247.721 1516.5,1236.721 1539.5,1236.721 	"/>
	<polygon display="inline" fill="#7C6E61" points="1528,1224.721 1516.5,1236.721 1539.5,1236.721 	"/>
	<polygon display="inline" fill="none" points="1579.5,1172.221 1567.5,1190.346 1554.25,1187.178 1539.5,1193.721
		1517.253,1193.721 1504.625,1187.465 1494.75,1190.419 1477.5,1160.196 1488.5,1137.721 1568.5,1137.721 	"/>
	<polygon display="inline" fill="#7C6E61" points="2035.193,1410.046 2032.906,1426.275 2024.447,1436.925 2008.472,1451.96
		2004.398,1463.864 1996.568,1470.128 1952.783,1472.221 1984.666,1441.134 1994.632,1415.625 	"/>
	<path display="inline" fill="#956543" d="M1555.5,1250.721l-19.201-56.999l32.201-57.501l7.729,5.267l17.896,24.233l14.125,31.5
		c0,0-7.943,12.189-11.418,16.416c-4.393,5.345-16.475,17.877-21.543,22.584C1570.496,1240.671,1555.5,1250.721,1555.5,1250.721z"/>
	<polygon display="inline" fill="#A58965" points="1558,1244.721 1550.998,1258.721 1537.75,1258.721 1531,1247.721 1525,1247.721
		1520,1259.721 1504.625,1259.721 1498.25,1244.721 1516.5,1193.721 1538.5,1193.721 	"/>
	<polygon display="inline" fill="#53555C" points="1543,1197.721 1565,1197.721 1560.679,1201.721 1551.365,1202.592
		1546.328,1201.721 	"/>
	<polygon display="inline" fill="#A58965" points="1541.388,1197.721 1567.5,1197.721 1565.75,1193.721 1551.976,1192.125
		1544.564,1193.721 	"/>
	<path display="inline" fill="#956543" d="M1828.167,1364.336l20.178,61.629l0.627,20.99l-17.229,15.669
		c0,0-8.457,2.834-10.338,2.834s-6.578-0.285-6.578-0.285l-4.387,0.995l-8.77,9.51l16.289,3.044l42.383,3.195l26.217-7.179
		l4.072-2.518l4.072-6.479l8.145-14.408l35.396-65.155l7.949-15.975l28.121-91.982l-14.977-47.5l-60.58-37.5l-34.352-19.631
		l-13.68,11.688l-49.059,95.974L1828.167,1364.336z"/>
	<rect x="1110.533" y="887.392" display="inline" fill="none" width="668.818" height="349.75"/>

		<text transform="matrix(1 0 0 1 1110.5327 973.6716)" display="inline" fill="#53555C" font-family="'Helvetica-Bold'" font-size="120" letter-spacing="-1">Brown Bear</text>

		<text transform="matrix(1 0 0 1 1110.5327 1133.6716)" display="inline" fill="#53555C" font-family="'Helvetica-Bold'" font-size="120" letter-spacing="-1">Mutual</text>
	<polygon display="inline" fill="#A58965" points="1579.5,1172.721 1567.5,1190.596 1549.785,1189.16 1538.5,1193.721
		1527.035,1195.721 1516.5,1193.721 1508.712,1189.16 1494.75,1190.846 1478.439,1162.971 1488.988,1142.988 1499.388,1136.757
		1568.5,1136.221 	"/>
	<polygon display="inline" fill="#53555C" points="1534.5,1247.721 1521.5,1247.721 1516.5,1236.721 1539.5,1236.721 	"/>
	<polygon display="inline" fill="#7C6E61" points="1528,1224.721 1516.5,1236.721 1539.5,1236.721 	"/>
	<polyline display="inline" fill="#956543" points="1685.652,1359.335 1668,1369.485 1668,1379.721 1613.123,1448.676
		1606,1454.827 1606,1470.721 1599.669,1474.431 1576.576,1476.721 1522.468,1476.721 1512,1474.853 1523,1464.721
		1541.72,1455.978 1552.23,1441.068 1576.75,1374.706 1611.355,1334.167 1655.621,1330.228 1687.449,1333.947 	"/>
	<polygon display="inline" fill="#A58965" points="1896.5,1112.221 1885.945,1110.499 1831.386,1114.62 1754,1123.721
		1705.195,1123.721 1667.271,1105.526 1695.007,1139.689 1749.621,1157.036 1835.261,1136.757 1864.41,1173.591 1898.773,1193.312
		1906.714,1211.777 1949.208,1244.292 1962.728,1247.225 1956.291,1259.223 1958.222,1268.654 1974.316,1278.721 1981,1278.721
		1993.632,1265.291 1980.755,1240.204 1991.701,1219.753 1935.687,1144.28 	"/>
</g>
<g id="Layer_7" display="none">
	<rect x="1140.88" y="1322.136" display="inline" fill="none" width="1039.762" height="349.749"/>

		<text transform="matrix(1 0 0 1 1140.8804 1394.0369)" display="inline" fill="#53555C" font-family="'Helvetica-Bold'" font-size="100" letter-spacing="-2">Brown Bear Mutual</text>
	<g display="inline">
		<polygon fill="none" points="1348.5,992.221 1336.5,1010.346 1323.25,1007.178 1308.5,1013.721 1286.253,1013.721
			1273.625,1007.465 1263.75,1010.419 1246.5,980.196 1257.5,957.721 1337.5,957.721 		"/>
		<path fill="#956543" d="M1267.25,1064.929c-7.666-3.335-29.736-21.558-30.5-26.458c-0.021-0.138,27-27.625,27-27.625l13.113-3.318
			l9.391,4.693l-7.725,32.943L1267.25,1064.929z"/>
		<polygon fill="#714E29" points="1316,1078.721 1306.75,1078.721 1300,1067.721 1294,1067.721 1289,1079.721 1278,1079.721
			1285.5,1092.721 1311,1092.721 		"/>
		<polygon fill="#53555C" points="1313.564,1085.041 1342.375,1103.211 1358.505,1150.211 1377.5,1042.123 1377,1017.721
			1344.289,1056.221 1324.5,1070.721 1316,1078.221 		"/>
		<polygon fill="#53555C" points="1451.65,1181.314 1468.47,1234.552 1451.544,1269.32 1445.238,1277.295 1414.96,1292.721
			1394,1292.721 1408.521,1277.939 1417.537,1253.993 1409.728,1234.68 1424.619,1194.667 		"/>
		<path fill="#714E29" d="M1456.46,1149.198c0,0,59.457,21.08,78.898,25.478c12.195,2.76,49.574,6.64,49.574,6.64l12.232,3.02
			l-23.178-81.123l45.742-93.427l13.68-16.193l-10.49-40.371l-160.551,4.002L1456.46,1149.198z"/>
		<polygon fill="#53555C" points="1282,1019.721 1263.25,1019.721 1267.25,1023.721 1274.22,1024.459 1280,1023.721 		"/>
		<polygon fill="#956543" points="1264.31,953.788 1307.437,935.296 1336.468,937.808 1377.234,935.203 1410.449,928.749
			1436.207,925.521 1447.796,936.463 1473.55,973.159 1482.564,1009.786 1487.716,1044.221 1455.927,1156.542 1424.621,1150.211
			1384.703,1155.362 1366.742,1172.1 1345.75,1194.635 1357.748,1153.429 1377,1029.814 1377,1017.721 1266.73,979.846 		"/>
		<path fill="#956543" d="M1324.5,1070.721l-19.201-56.999l32.201-57.501l7.729,5.267l17.896,24.233l14.125,31.5
			c0,0-7.943,12.189-11.418,16.416c-4.393,5.345-16.475,17.877-21.543,22.584C1339.496,1060.671,1324.5,1070.721,1324.5,1070.721z"
			/>
		<polygon fill="#53555C" points="1312,1017.721 1334,1017.721 1329.679,1021.721 1320.365,1022.592 1315.328,1021.721 		"/>
		<polygon fill="#A58965" points="1310.388,1017.721 1336.5,1017.721 1334.75,1013.721 1320.976,1012.125 1313.564,1013.721 		"/>
		<polygon fill="#CEA47E" points="1284,1019.721 1260.75,1019.721 1262.5,1015.721 1278,1014.125 1282,1015.721 		"/>
		<polygon fill="#714E29" points="1246.5,977.055 1263.75,1010.846 1236.75,1038.471 1230.462,1015.221 		"/>
		<path fill="#938376" d="M1803.193,1230.048l-1.287,16.228l-8.459,10.649l-15.977,15.035l-4.07,11.903l-7.832,6.265l-43.785,2.094
			l31.883-31.088c0,0,4.566-21.299,9.967-25.51C1766.062,1233.728,1803.193,1230.048,1803.193,1230.048z"/>
		<polygon fill="#714E29" points="1795.468,1213.955 1790.96,1181.323 1781.304,1099.364 1773,1060.079 1760.701,1039.753
			1755.873,1038.721 1749.755,1060.204 1762.632,1085.291 1750,1098.721 1743.318,1098.721 1739.455,1108.878 1708.55,1199.786
			1728.509,1230.046 1736.878,1242.922 1731.386,1273.271 1719.871,1280.087 1711.644,1291.603 1720.783,1292.221
			1739.455,1287.991 1751.042,1279.623 1765.208,1241.635 1803.193,1230.048 		"/>
		<polygon fill="#714E29" points="1259.216,964.218 1238.003,943.004 1247.75,942.221 1270.019,957.775 		"/>
		<polygon fill="#938376" points="1247.439,982.971 1234.75,957.221 1238.003,943.004 1260.13,963.978 		"/>
		<polygon fill="#714E29" points="1345.527,964.218 1366.742,943.004 1357.873,942.221 1337.5,956.221 		"/>
		<polygon fill="#CEA47E" points="1360.246,982.971 1369.996,957.221 1366.742,943.004 1345.527,964.218 		"/>
		<polygon fill="#53555C" points="1303.5,1067.721 1290.5,1067.721 1285.5,1056.721 1308.5,1056.721 		"/>
		<polygon fill="#7C6E61" points="1297,1044.721 1285.5,1056.721 1308.5,1056.721 		"/>
		<polygon fill="none" points="1348.5,992.221 1336.5,1010.346 1323.25,1007.178 1308.5,1013.721 1286.253,1013.721
			1273.625,1007.465 1263.75,1010.419 1246.5,980.196 1257.5,957.721 1337.5,957.721 		"/>
		<path fill="#956543" d="M1324.5,1070.721l-2.188,1.933l-17.014-58.932l32.199-57.501l7.73,5.267l17.895,24.233l14.125,31.5
			c0,0-6.943,15.189-10.416,19.416c-4.395,5.345-16.477,17.877-21.545,22.584C1340.496,1063.671,1324.5,1070.721,1324.5,1070.721z"
			/>
		<polygon fill="#CEA47E" points="1327,1064.721 1319.998,1078.721 1306.75,1078.721 1300,1067.721 1294,1067.721 1289,1079.721
			1273.625,1079.721 1267.25,1064.721 1285.5,1013.721 1307.5,1013.721 		"/>
		<polygon fill="#53555C" points="1312,1019.721 1334,1019.721 1329.679,1023.721 1320.365,1024.592 1315.328,1023.721 		"/>
		<polygon fill="#CEA47E" points="1310.388,1019.721 1336.5,1019.721 1334.75,1015.721 1320.976,1014.125 1313.564,1015.721 		"/>
		<path fill="#956543" d="M1597.167,1184.336l20.178,61.629l0.627,20.99l-17.229,15.669c0,0-8.457,2.834-10.338,2.834
			s-6.578-0.285-6.578-0.285l-4.387,0.995l-8.77,9.51l16.289,3.044l42.383,3.195l26.217-7.179l4.072-2.518l4.072-6.479l8.145-14.408
			l35.396-65.155l7.949-15.975l28.121-91.982l-14.977-47.5l-60.58-37.5l-34.352-19.631l-13.68,11.688l-49.059,95.974
			L1597.167,1184.336z"/>
		<polygon fill="#A8795D" points="1348.5,992.721 1336.5,1010.596 1318.785,1009.16 1307.5,1013.721 1296.035,1015.721
			1285.5,1013.721 1277.712,1009.16 1263.75,1010.846 1247.439,982.971 1257.988,962.988 1268.388,956.757 1337.5,956.221 		"/>
		<polygon fill="#53555C" points="1303.5,1067.721 1290.5,1067.721 1285.5,1056.721 1308.5,1056.721 		"/>
		<polygon fill="#938376" points="1297,1044.721 1285.5,1056.721 1308.5,1056.721 		"/>
		<polygon fill="#956543" points="1454.652,1179.335 1437,1189.485 1437,1199.721 1382.123,1268.676 1375,1274.827 1375,1290.721
			1368.669,1294.431 1345.576,1296.721 1291.468,1296.721 1281,1294.853 1292,1284.721 1310.72,1275.978 1321.23,1261.068
			1345.75,1194.706 1380.355,1154.167 1424.621,1150.228 1456.449,1153.947 		"/>
		<path fill="#A8795D" d="M1681.753,938.621L1662,932.722l-51,7l-88,4h-48.805l-37.926-18.195l27.738,34.164l54.611,17.345
			c0,0,74.902-22.778,85.643-20.278c12.736,2.965,29.148,36.834,29.148,36.834l34.363,19.72l7.939,18.466l42.494,32.515
			l13.521,2.935l-6.439,11.998l1.932,9.431c0,0,11.535,8.759,16.098,10.067c1.604,0.461,5.146,0.663,6.682,0
			c4.23-1.828,12.281-8.835,12.633-13.432c0.537-7.029-12.877-25.087-12.877-25.087l10.945-20.45l-56.014-75.473L1681.753,938.621z"
			/>
	</g>
</g>
<polygon fill="#009C7B" points="558.492,0 392.259,152.107 308.072,49.462 193.654,188.963 153.62,140.154 0,297.722
	104.45,297.722 234.513,297.722 282.857,297.722 511.687,297.722 822.32,297.722 "/>
<path fill="#1BE3CD" d="M539.978,268.449l0.051-0.701c0,0-0.121,0.02-0.328,0.05l-3.254-7.604l-2.088-15.316l-2.129-29.861
	l-5.145-31.156l-5.961-9.753l-27.027-34.487l-10.631-12.044l-9.156-2.769l-23.643,2.661l-40.793,1.256h-22.623l-17.176-4.475
	l-0.764-2.079l-28.861,4.614l-19.81,1.86l-13.897-1.414l-16.935,8.639l-6.985-3.343l-4.514,0.357l-1.509,6.666l5.023,10.317
	l-7.009,16.889l2.912,11.011c0.354,2.3,8.403,10.861,11.955,12.566l0.387,0.656l2.119,6.169l1.201-0.004l3.715,5.139l11.645-0.01
	l1.946-4.154l15.719,10.107l7.396,21.809l-0.27,1.745l-5.562,19.337l0.202-0.221l-0.202,0.239l-11.364,31.137l-4.874,6.972
	l-8.679,4.053l-5.264,5.321l5.018,0.095h25.083l10.665-0.093l3.436-2.401v-7.462l3.217-2.889l12.562-16.038l-0.082,0.062l3.59,9.041
	l-4.193,11.062l-6.748,6.719h9.717l14.035-7.021l2.924-3.587l7.846-16.288l-6.936-21.755l0.678-4.136l0.75-11.794l0.592-2.113
	c4.2,1.499,27.728,9.85,35.922,11.727c5.654,1.295,23.283,3.117,23.283,3.117l5.973,1.417v0.001l9.053,28.93l0.141,9.854
	l-8.064,7.354c0,0-3.957,1.329-4.828,1.329s-3.064-0.132-3.064-0.132l-2.045,0.466l-4.07,4.464l8.262,0.146l18.611-0.062
	l11.924-0.066l2.436-1.64l1.889-3.04l1.176-7.525l16.408-30.584l2.672-5.326l9.785,17.312l3.879,6.853l-2.545,14.238l-5.338,3.197
	l-4.273,6.521l5.158-0.008l19.758-0.062l4.172-4.679l1.889-5.587l7.404-7.059l3.918-4.999l0.541-7.6l0.059-0.02L539.978,268.449z
	 M521.228,199.88l-0.02,0.019c0.002-0.012,0.006-0.026,0.008-0.039L521.228,199.88z M364.599,230.285l-0.059-0.007l-0.128,0.012
	l0.128-0.017L364.599,230.285z"/>
<path fill="#D8C7BA" d="M537.662,267.834l0.049-0.694c0,0-0.123,0.019-0.33,0.049l-3.268-7.544l-2.1-15.197l-4.498-38.168
	l-3.867-18.295l-5.727-9.466l-26.088-35.148l-10.68-11.95l-9.199-2.747l-23.752,3.225l-40.981,1.827h-22.729l-17.43-8.326
	l-0.262-0.162l-11.995,1.545l-15.469,3.027l-18.984,1.223l-13.521-1.165l-19.795,8.491l-7.727-5.395l-4.535,0.364l-1.516,6.618
	l5.046,10.238l-7.041,16.757l2.927,10.819c0.355,2.281,10.626,10.763,14.195,12.314l0.016-0.028l-0.016-0.172l2.967,6.849h2.035
	l3.491,6h11.868l1.15-2.757l13.205,8.217l7.43,21.593l-0.271,1.709l-5.588,19.175l0.2-0.223l-0.2,0.231l-11.417,30.891l-4.896,6.917
	l-8.719,4.019l-5.289,6.135l5.043,0.093h25.198l10.334-0.093l3.069-3.235v-7.403l3.649-2.863l12.993-16.114l-0.133,0.252l3.617,8.96
	l-4.206,10.914l-6.774,6.584h9.763l14.101-6.884l2.938-3.495l7.882-16.15l-7.83-24.765l1.578-0.917l0.742-11.781l0.57-2.013
	c4.217,1.506,27.856,9.905,36.065,11.875c5.639,1.353,12.209,2.335,12.209,2.335l16.6,1.921v0.001l9.396,28.701l0.293,9.774
	l-8.023,7.297c0,0-3.938,1.32-4.812,1.32s-3.064-0.132-3.064-0.132l-2.041,0.463l-4.086,4.429l8.305,0.146l18.699-0.063
	l11.979-0.063l2.447-1.626l1.896-3.02l3.795-6.71l16.484-30.344l1.064-2.145l8.834,13.329l3.898,6.773l-2.557,14.115l-5.365,3.165
	l-4.289,6.466l5.182-0.011l0.006-0.002l19.844-0.061l4.188-4.643l1.898-5.545l7.438-7.002l3.939-4.96l0.541-7.538l0.061-0.019
	L537.662,267.834z M361.464,229.97l-0.058-0.008l-0.124,0.012l0.124-0.017L361.464,229.97z"/>
<g opacity="0.9">
	<polygon fill="none" points="325.956,156.084 320.368,164.674 314.197,163.437 307.329,166.722 296.968,166.722 291.087,163.644
		286.487,164.938 278.454,150.525 283.577,139.722 320.833,139.722 	"/>
	<polygon fill="#53555C" points="309.688,199.607 323.104,208.07 330.616,229.958 339.462,179.621 339.229,168.257 335.038,166.084
		323.995,186.187 314.779,192.939 310.821,196.432 	"/>
	<polygon fill="#53555C" points="373.995,244.443 381.827,269.236 373.945,285.428 371.009,288.839 356.908,295.722
		347.146,295.722 353.91,289.138 358.106,278.139 354.472,269.221 361.405,250.624 	"/>
	<path fill="#714E29" d="M376.234,229.486c0,0,27.692,9.943,36.721,12.107c5.639,1.354,12.207,2.336,12.207,2.336l16.602,1.92
		l-10.795-37.779l21.303-43.509l6.369-7.542l-4.885-18.803l-74.77,1.865L376.234,229.486z"/>
	<polygon fill="#8C5F41" points="286.749,138.483 306.833,129.871 320.354,131.041 339.338,129.828 354.807,126.821
		366.802,125.318 372.2,130.414 384.194,147.504 388.392,164.561 390.791,180.598 375.986,232.907 361.406,229.958 342.817,232.356
		334.452,240.152 324.676,250.647 330.264,231.457 339.229,173.889 337.499,168.17 332.019,178.504 287.877,150.619 	"/>
	<path fill="#938376" d="M537.71,267.139l-0.602,8.366l-3.938,4.96l-7.439,7.002l-1.896,5.545l-4.188,4.643l-19.85,0.061
		l14.848-15.288c0,0,2.127-9.921,4.641-11.881C520.419,269.664,537.71,267.139,537.71,267.139z"/>
	<polygon fill="#714E29" points="534.113,259.644 532.013,244.447 527.517,206.278 523.648,187.983 517.921,178.517
		515.673,178.037 512.826,188.041 518.398,199.983 509.478,205.422 508.027,210.986 493.634,253.183 502.929,267.208
		506.826,273.981 504.269,288.096 498.906,291.26 494.615,297.727 499.798,297.717 508.027,294.935 513.423,291.037
		520.019,273.345 537.71,267.95 	"/>
	<polygon fill="none" points="325.956,156.084 320.368,164.674 314.197,163.437 307.329,166.722 296.968,166.722 291.087,163.644
		286.487,164.938 278.454,150.525 283.577,139.722 320.833,139.722 	"/>
	<path fill="#8C5F41" d="M441.763,245.85l9.396,28.7l0.291,9.775l-8.023,7.297c0,0-3.938,1.32-4.812,1.32s-3.062-0.132-3.062-0.132
		l-2.043,0.463l-4.084,4.429l8.303,0.146l18.701-0.063l11.977-0.063l2.447-1.626l1.898-3.02l3.793-6.71l16.484-30.344l3.701-7.438
		l13.098-42.837l-6.977-22.121l-28.213-17.464l-15.998-9.142l-6.369,5.442l-22.848,44.695L441.763,245.85z"/>
	<polygon fill="#8C5F41" points="375.806,243.522 367.999,248.248 367.999,253.016 341.88,285.127 337.999,287.991 337.999,295.394
		334.93,298.63 324.596,298.722 299.397,298.722 294.354,298.63 299.644,292.521 308.362,288.489 313.259,281.564 324.676,250.669
		340.792,231.795 361.406,229.964 376.436,231.697 	"/>
	<path fill="#B78F6E" d="M481.154,131.418l-9.199-2.747l-23.75,3.225l-40.982,1.827h-22.729l-17.661-8.438l12.918,15.929
		l25.434,8.086c0,0,34.881-10.604,39.883-9.438c5.932,1.381,13.574,17.157,13.574,17.157l16.004,9.185l3.697,8.6l19.791,15.143
		l6.295,1.368l-2.998,5.587l0.9,4.391c0,0,5.371,4.08,7.496,4.689c0.746,0.215,2.396,0.309,3.111,0
		c1.971-0.853,5.719-4.115,5.883-6.255c0.25-3.273-5.996-11.684-5.996-11.684l5.098-9.523l-26.088-35.148L481.154,131.418z"/>
	<path fill="#53555C" d="M336.829,174.726"/>
	<g>
		<polygon fill="none" points="326.202,156.006 320.618,164.557 314.45,163.379 307.586,166.722 297.232,166.722 291.354,163.57
			286.758,164.824 278.729,150.469 283.85,139.722 321.083,139.722 		"/>
		<path fill="#8C5F41" d="M288.388,190.074c-3.569-1.552-13.84-10.033-14.195-12.314c-0.011-0.063,12.565-12.856,12.565-12.856
			l6.104-1.545l4.371,2.186l-3.597,15.332L288.388,190.074z"/>
		<polygon fill="#714E29" points="311.075,196.722 306.771,196.722 303.63,191.722 300.837,191.722 298.51,196.722 293.39,196.722
			296.881,202.722 308.749,202.722 		"/>
		<path fill="#714E29" d="M313.888,193.604l-7.511-26.803l14.985-26.762l3.6,2.451l5.594,10.16l-0.787,15.223l2.355,10.637
			c0,0-5.242,5.881-7.601,8.071C322.292,188.653,313.888,193.604,313.888,193.604z"/>
		<polygon fill="#8C5F41" points="308.53,171.716 313.457,173.472 319.883,173.701 322.188,173.293 319.812,171.908 323.085,167.5
			320.618,164.691 312.551,163.521 306.771,166.206 		"/>
		<polygon fill="#714E29" points="286.854,164.956 291.854,166.532 295.582,168.628 294.243,171.802 290.008,172.885
			288.603,173.123 292.06,174.294 292.128,177.321 289.743,187.99 296.026,170.982 297.773,168.788 299.101,167.979
			309.749,172.432 307.373,166.174 293.522,163.333 		"/>
		<polygon fill="#53555C" points="295.252,168.722 286.526,168.722 288.388,170.739 291.632,171.16 294.321,170.701 		"/>
		<polygon fill="#53555C" points="309.215,167.722 319.454,167.722 317.442,169.774 313.108,170.274 310.763,169.726 		"/>
		<polygon fill="#CEA47E" points="295.582,168.722 284.761,168.722 286.176,167.044 293.39,166.364 295.252,167.013 		"/>
		<polygon fill="#714E29" points="278.729,149.176 286.758,164.903 274.192,177.76 271.266,166.939 		"/>
		<polyline fill="#956543" points="331.669,151.929 325.678,142.679 321.083,139.479 		"/>
		<polygon fill="#714E29" points="284.647,143.201 274.776,133.327 279.312,132.964 289.677,140.201 		"/>
		<polygon fill="#CEA47E" points="279.168,151.929 273.261,139.945 274.776,133.327 285.074,143.088 		"/>
		<polygon fill="#714E29" points="324.819,143.201 334.692,133.327 330.564,132.964 321.083,139.479 		"/>
		<polygon fill="#CEA47E" points="331.669,151.929 336.207,139.945 334.692,133.327 324.819,143.201 		"/>
		<polygon fill="#53555C" points="305.259,191.722 299.208,191.722 296.881,185.722 307.586,185.722 		"/>
		<polygon fill="#7C6E61" points="302.233,180.138 296.881,185.722 307.586,185.722 		"/>
		<polygon fill="none" points="326.202,156.006 320.618,164.557 314.45,163.379 307.586,166.722 297.232,166.722 291.354,163.57
			286.758,164.824 278.729,150.469 283.85,139.722 321.083,139.722 		"/>
		<polygon fill="#53555C" points="309.215,168.722 319.454,168.722 317.442,170.739 313.108,171.222 310.763,170.701 		"/>
		<polygon fill="#CEA47E" points="308.466,168.722 320.618,168.722 319.802,167.015 313.393,166.35 309.944,166.977 		"/>
		<polygon fill="#8C5F41" points="321.083,139.76 320.618,165.067 332.124,178.511 336.066,163.705 331.734,151.827
			325.678,142.959 		"/>
		<polygon fill="#CEA47E" points="316.195,190.141 312.938,196.722 306.771,196.722 303.63,191.722 300.837,191.722 298.51,196.722
			291.354,196.722 288.388,189.874 296.249,168.593 298.778,167.779 305.174,167.706 307.927,168.53 		"/>
		<polygon fill="#AD866A" points="326.202,156.467 320.618,164.787 312.372,164.118 307.162,166.397 301.938,166.036
			296.892,166.38 293.256,164.118 286.758,164.903 279.168,151.929 284.077,142.628 288.917,139.729 321.083,139.479 		"/>
		<polygon fill="#53555C" points="305.259,191.722 299.208,191.722 296.881,185.722 307.586,185.722 		"/>
		<polygon fill="#938376" points="302.233,180.138 296.881,185.722 307.586,185.722 		"/>
	</g>
</g>
<g>
	<path fill="#1BE3CD" d="M114.901,250.401c1.758,2.319,2.638,5.095,2.638,8.325c0,3.332-0.888,6.008-2.661,8.029
		c-0.99,1.136-2.451,2.171-4.381,3.108c2.931,1.013,5.143,2.616,6.635,4.812c1.492,2.196,2.238,4.859,2.238,7.992
		c0,3.231-0.853,6.13-2.558,8.695c-1.085,1.702-2.441,3.132-4.069,4.294c-1.833,1.33-3.996,2.243-6.49,2.736
		c-2.492,0.494-5.198,0.74-8.117,0.74H72.251V244.59h27.762C107.019,244.69,111.981,246.626,114.901,250.401z M83.71,254.065v12.024
		h13.961c2.495,0,4.52-0.449,6.076-1.351c1.555-0.9,2.333-2.497,2.333-4.792c0-2.541-1.028-4.218-3.085-5.032
		c-1.774-0.566-4.038-0.851-6.789-0.851L83.71,254.065L83.71,254.065z M83.71,275.119v14.544h13.946
		c2.491,0,4.431-0.321,5.817-0.963c2.517-1.184,3.775-3.453,3.775-6.809c0-2.836-1.22-4.786-3.66-5.848
		c-1.36-0.593-3.274-0.9-5.74-0.926L83.71,275.119L83.71,275.119z"/>
	<path fill="#1BE3CD" d="M149.058,257.857c0.143,0.013,0.461,0.031,0.955,0.057v10.803c-0.701-0.071-1.326-0.121-1.871-0.146
		c-0.546-0.024-0.988-0.037-1.326-0.037c-4.469,0-7.47,1.381-9.002,4.146c-0.857,1.553-1.286,3.946-1.286,7.179v19.277h-11.187
		v-40.334h10.602v7.03c1.715-2.688,3.209-4.525,4.481-5.513c2.079-1.653,4.781-2.479,8.107-2.479
		C148.739,257.839,148.914,257.845,149.058,257.857z"/>
	<path fill="#1BE3CD" d="M188.796,294.202c-3.586,4.2-9.029,6.303-16.331,6.303c-7.302,0-12.744-2.103-16.33-6.303
		c-3.586-4.202-5.378-9.263-5.378-15.18c0-5.815,1.792-10.856,5.378-15.119c3.586-4.265,9.028-6.397,16.33-6.397
		c7.302,0,12.745,2.134,16.331,6.397c3.585,4.263,5.379,9.304,5.379,15.119C194.175,284.939,192.381,290,188.796,294.202z
		 M179.909,288.373c1.741-2.191,2.611-5.309,2.611-9.351c0-4.037-0.87-7.148-2.611-9.327c-1.74-2.18-4.235-3.271-7.482-3.271
		c-3.248,0-5.749,1.093-7.504,3.271c-1.753,2.179-2.63,5.29-2.63,9.327c0,4.042,0.877,7.158,2.63,9.351
		c1.755,2.192,4.256,3.286,7.504,3.286C175.674,291.659,178.169,290.565,179.909,288.373z"/>
	<path fill="#1BE3CD" d="M218.198,258.801h11.264l6.471,29.05l6.625-29.05h11.575l-12.315,40.334h-11.42l-6.664-29.381
		l-6.743,29.381h-11.536l-11.926-40.334h11.926l6.626,28.938L218.198,258.801z"/>
	<path fill="#1BE3CD" d="M291.149,261.114c2.78,2.183,4.172,5.804,4.172,10.859v27.161H283.94v-24.532
		c0-2.121-0.297-3.751-0.891-4.887c-1.083-2.071-3.147-3.106-6.189-3.106c-3.74,0-6.307,1.518-7.699,4.551
		c-0.723,1.604-1.084,3.652-1.084,6.145v21.832H256.97v-40.261h10.757v5.883c1.423-2.072,2.769-3.563,4.036-4.477
		c2.276-1.629,5.162-2.442,8.654-2.442C284.79,257.839,288.366,258.931,291.149,261.114z"/>
	<path fill="#1BE3CD" d="M368.375,250.401c1.759,2.319,2.638,5.095,2.638,8.325c0,3.332-0.889,6.008-2.66,8.029
		c-0.992,1.136-2.453,2.171-4.383,3.108c2.932,1.013,5.145,2.616,6.637,4.812c1.492,2.196,2.238,4.859,2.238,7.992
		c0,3.231-0.854,6.13-2.558,8.695c-1.086,1.702-2.442,3.132-4.069,4.294c-1.834,1.33-3.998,2.243-6.49,2.736
		c-2.494,0.494-5.199,0.74-8.118,0.74h-25.886V244.59h27.764C360.491,244.69,365.454,246.626,368.375,250.401z M337.183,254.065
		v12.024h13.963c2.494,0,4.52-0.449,6.074-1.351c1.557-0.9,2.334-2.497,2.334-4.792c0-2.541-1.028-4.218-3.086-5.032
		c-1.773-0.566-4.037-0.851-6.788-0.851L337.183,254.065L337.183,254.065z M337.183,275.119v14.544h13.947
		c2.49,0,4.43-0.321,5.818-0.963c2.516-1.184,3.774-3.453,3.774-6.809c0-2.836-1.221-4.786-3.659-5.848
		c-1.361-0.593-3.275-0.9-5.741-0.926L337.183,275.119L337.183,275.119z"/>
	<path fill="#1BE3CD" d="M407.205,259.618c2.963,1.261,5.412,3.25,7.341,5.967c1.738,2.396,2.869,5.178,3.383,8.339
		c0.301,1.854,0.422,4.521,0.367,8.006h-30.939c0.172,4.046,1.653,6.882,4.441,8.511c1.697,1.013,3.738,1.518,6.125,1.518
		c2.531,0,4.587-0.616,6.17-1.851c0.86-0.665,1.623-1.591,2.284-2.775h11.341c-0.299,2.394-1.672,4.822-4.119,7.29
		c-3.804,3.922-9.131,5.884-15.98,5.884c-5.654,0-10.643-1.654-14.965-4.963c-4.322-3.309-6.482-8.69-6.482-16.146
		c0-6.988,1.95-12.347,5.852-16.073s8.966-5.593,15.193-5.593C400.911,257.728,404.242,258.358,407.205,259.618z M390.588,268.728
		c-1.569,1.537-2.556,3.615-2.959,6.243h19.137c-0.203-2.8-1.188-4.925-2.961-6.373c-1.769-1.449-3.965-2.176-6.586-2.176
		C394.368,266.423,392.157,267.192,390.588,268.728z"/>
	<path fill="#1BE3CD" d="M439.087,274.602c2.068-0.248,3.547-0.556,4.438-0.927c1.598-0.641,2.395-1.641,2.395-2.996
		c0-1.652-0.611-2.794-1.836-3.424c-1.225-0.629-3.023-0.942-5.393-0.942c-2.66,0-4.545,0.616-5.65,1.851
		c-0.789,0.912-1.318,2.146-1.58,3.7h-10.717c0.234-3.527,1.275-6.428,3.131-8.696c2.949-3.552,8.012-5.328,15.188-5.328
		c4.672,0,8.82,0.876,12.447,2.626c3.627,1.753,5.439,5.06,5.439,9.918v18.503c0,1.281,0.027,2.836,0.08,4.66
		c0.076,1.384,0.299,2.319,0.662,2.813c0.363,0.492,0.908,0.901,1.637,1.221v1.556h-12.084c-0.336-0.815-0.57-1.579-0.699-2.296
		c-0.129-0.716-0.234-1.528-0.312-2.44c-1.543,1.577-3.318,2.923-5.33,4.032c-2.404,1.309-5.123,1.963-8.154,1.963
		c-3.867,0-7.062-1.044-9.584-3.129c-2.523-2.083-3.785-5.038-3.785-8.861c0-4.958,2.031-8.547,6.088-10.77
		c2.225-1.207,5.496-2.07,9.814-2.59L439.087,274.602z M445.88,279.523c-0.713,0.42-1.432,0.759-2.154,1.017
		c-0.723,0.261-1.719,0.501-2.982,0.725l-2.527,0.442c-2.371,0.395-4.072,0.875-5.105,1.442c-1.75,0.962-2.623,2.456-2.623,4.479
		c0,1.8,0.533,3.103,1.604,3.903c1.066,0.803,2.367,1.202,3.898,1.202c2.426,0,4.66-0.665,6.707-1.998
		c2.043-1.332,3.104-3.761,3.186-7.289v-3.923H445.88z"/>
	<path fill="#1BE3CD" d="M487.355,257.857c0.145,0.013,0.461,0.031,0.955,0.057v10.803c-0.701-0.071-1.324-0.121-1.869-0.146
		c-0.547-0.024-0.988-0.037-1.326-0.037c-4.471,0-7.471,1.381-9.002,4.146c-0.857,1.553-1.287,3.946-1.287,7.179v19.277H463.64
		v-40.334h10.602v7.03c1.715-2.688,3.207-4.525,4.48-5.513c2.078-1.653,4.779-2.479,8.107-2.479
		C487.039,257.839,487.212,257.845,487.355,257.857z"/>
	<path fill="#1BE3CD" d="M552.808,245.445h17.273v54.543h-11.186v-36.893c0-1.062,0.014-2.548,0.039-4.46
		c0.025-1.911,0.039-3.387,0.039-4.422l-10.887,45.773h-11.668l-10.809-45.773c0,1.035,0.014,2.511,0.039,4.423
		c0.025,1.911,0.039,3.397,0.039,4.459v36.893h-11.186v-54.543h17.467l10.459,42.886L552.808,245.445z"/>
	<path fill="#1BE3CD" d="M588.769,258.801v24.312c0,2.295,0.283,4.021,0.854,5.18c1.01,2.049,2.984,3.071,5.934,3.071
		c3.773,0,6.361-1.457,7.756-4.366c0.723-1.578,1.088-3.663,1.088-6.253v-21.942h11.264v40.334h-10.795v-5.699
		c-0.105,0.124-0.365,0.493-0.779,1.109c-0.416,0.616-0.906,1.16-1.477,1.628c-1.736,1.479-3.414,2.492-5.033,3.034
		c-1.621,0.543-3.518,0.814-5.695,0.814c-6.27,0-10.492-2.146-12.668-6.438c-1.219-2.369-1.826-5.859-1.826-10.473V258.8
		L588.769,258.801L588.769,258.801z"/>
	<path fill="#1BE3CD" d="M618.755,266.682v-7.512h5.924v-11.25h10.99v11.25h6.9v7.512h-6.9v21.313c0,1.652,0.221,2.684,0.662,3.09
		c0.443,0.407,1.795,0.612,4.055,0.612c0.336,0,0.695-0.008,1.07-0.02c0.379-0.013,0.748-0.031,1.113-0.058v7.882l-5.264,0.187
		c-5.25,0.173-8.834-0.69-10.756-2.591c-1.248-1.208-1.871-3.07-1.871-5.589v-24.828L618.755,266.682L618.755,266.682z"/>
	<path fill="#1BE3CD" d="M657.386,258.801v24.312c0,2.295,0.283,4.021,0.854,5.18c1.008,2.049,2.984,3.071,5.934,3.071
		c3.773,0,6.359-1.457,7.756-4.366c0.725-1.578,1.086-3.663,1.086-6.253v-21.942h11.264v40.334h-10.797v-5.699
		c-0.104,0.124-0.361,0.493-0.777,1.109c-0.414,0.616-0.904,1.16-1.477,1.628c-1.734,1.479-3.414,2.492-5.029,3.034
		c-1.623,0.543-3.521,0.814-5.695,0.814c-6.271,0-10.494-2.146-12.67-6.438c-1.219-2.369-1.826-5.859-1.826-10.473V258.8
		L657.386,258.801L657.386,258.801z"/>
	<path fill="#1BE3CD" d="M708.906,274.602c2.066-0.248,3.547-0.556,4.436-0.927c1.6-0.641,2.396-1.641,2.396-2.996
		c0-1.652-0.613-2.794-1.838-3.424c-1.225-0.629-3.021-0.942-5.395-0.942c-2.658,0-4.541,0.616-5.646,1.851
		c-0.793,0.912-1.316,2.146-1.582,3.7H690.56c0.234-3.527,1.277-6.428,3.131-8.696c2.949-3.552,8.014-5.328,15.189-5.328
		c4.67,0,8.818,0.876,12.447,2.626c3.627,1.753,5.439,5.06,5.439,9.918v18.503c0,1.281,0.025,2.836,0.078,4.66
		c0.078,1.384,0.297,2.319,0.662,2.813c0.361,0.492,0.908,0.901,1.639,1.221v1.556h-12.082c-0.34-0.815-0.572-1.579-0.701-2.296
		c-0.131-0.716-0.234-1.528-0.312-2.44c-1.541,1.577-3.32,2.923-5.332,4.032c-2.404,1.309-5.123,1.963-8.154,1.963
		c-3.867,0-7.062-1.044-9.584-3.129c-2.523-2.083-3.781-5.038-3.781-8.861c0-4.958,2.025-8.547,6.082-10.77
		c2.227-1.207,5.498-2.07,9.818-2.59L708.906,274.602z M715.699,279.523c-0.711,0.42-1.43,0.759-2.154,1.017
		c-0.725,0.261-1.717,0.501-2.982,0.725l-2.527,0.442c-2.369,0.395-4.072,0.875-5.107,1.442c-1.748,0.962-2.623,2.456-2.623,4.479
		c0,1.8,0.533,3.103,1.605,3.903c1.066,0.803,2.367,1.202,3.896,1.202c2.428,0,4.662-0.665,6.709-1.998
		c2.043-1.332,3.105-3.761,3.186-7.289v-3.923H715.699z"/>
	<path fill="#1BE3CD" d="M744.843,299.135h-11.105v-54.544h11.105V299.135z"/>
</g>
</svg>
